<?xml version="1.0" encoding="utf-8"?>
<!-- Generator: Adobe Illustrator 26.0.1, SVG Export Plug-In . SVG Version: 6.00 Build 0)  -->
<svg version="1.1" id="Слой_1" xmlns="http://www.w3.org/2000/svg" xmlns:xlink="http://www.w3.org/1999/xlink" x="0px" y="0px"
	 viewBox="0 0 400 400" style="enable-background:new 0 0 400 400;" xml:space="preserve">
<g>
	<path style="fill:#FFFFFF;" d="M198,394.8c-4.6-1-9.3-1.7-13.8-2.9c-32-8.7-55.3-35.8-59.4-68.8c-4-32.5,12.7-64.8,41.9-80.7
		c2.1-1.2,3.2-2.3,3-4.9c-0.2-2.7-0.1-5.5,0-8.2c0.1-4.1,2.3-6.6,5.6-6.6c3.3,0,5.5,2.5,5.6,6.5c0,2.1,0,4.2,0,6.5
		c6.3-1.2,12.5-2.4,19-3.6c0-3.2,0-6.4,0-9.6c0-10,0-20,0-29.9c0-1.5,0-3,0.4-4.5c0.7-2.8,2.8-4.2,5.5-4.1c2.7,0.1,4.7,1.6,5.2,4.5
		c0.2,1.3,0.2,2.7,0.2,4.1c0,13.1,0,26.2,0,39.5c6.4,1.2,12.5,2.4,19.1,3.7c0-1.2,0-2.4,0-3.5c0-21.1,0.1-42.2-0.1-63.2
		c0-2.1-0.8-4.4-1.9-6.2c-3.2-5.3-6.7-10.5-10.3-15.6c-2.6-3.6-2.4-6.7,0.1-10.2c3.7-5.3,7.1-10.8,10.7-16.2
		c2.6-3.9,2.1-11.6-0.8-15.3c-3.4-4.3-6.8-8.6-10.2-12.9c-2.3-2.8-2.3-5.6-0.2-8.5c3.8-5.3,7.6-10.5,11.2-15.9
		c0.9-1.3,1.5-3.2,1.5-4.8c0.2-6,0.2-12,0-18c0-1.4-0.8-3.2-1.8-4c-7.4-5.8-14.9-11.3-22.7-17.2c-5.4,4.1-10.5,8.7-16.4,12.1
		c-6.9,4-8.5,9.3-8.5,17c0.4,48.5,0.2,97.1,0.2,145.6c0,1.1,0.1,2.3,0,3.4c-0.3,3.2-2.1,5-5.2,5.3c-2.9,0.3-5.5-1.9-5.8-5.1
		c-0.2-2.3,0-4.7,0-7.3c-11.7,0-22.9-0.1-34.1,0.1c-1,0-2.2,1.1-3,1.9c-6,5.9-11.8,11.9-17.8,17.7c-1.8,1.7-2.1,2.9-1.1,5.4
		c5.6,12.6-0.7,27.1-13.7,31.8c-12.8,4.6-26.9-2.5-30.7-15.5c-3.9-13.1,4-26.9,17.4-30c5.1-1.2,10.3-0.9,15,1.5c2.2,1.2,3.4,0.7,5-1
		c6.5-6.7,13.3-13.2,19.8-19.9c2.3-2.3,4.7-3.4,7.9-3.3c10.2,0.1,20.5,0,30.7,0c1.3,0,2.7,0,4.2,0c0-4.9,0-9.5,0-14.4
		c-4.8,0-9.5,0-14.2,0c-5.5,0-8-1.8-8.1-5.5c-0.1-3.8,2.5-5.7,7.9-5.7c4.7,0,9.4,0,14.4,0c0-6.8,0-13.3,0-20.5
		c-7.5,0-15.1-0.1-22.6,0.1c-0.9,0-1.9,1.9-2.4,3.2c-4.1,9.6-14,15.7-23.8,14.7c-10.8-1.1-19.3-8.7-21.4-19
		c-2.4-12.1,4.6-23.8,16.4-27.4c11.6-3.5,24,2.2,28.6,13.6c1.1,2.8,2.4,3.7,5.4,3.6c6.6-0.2,13.2-0.1,19.9-0.1c0-5,0-9.5,0-14.6
		c-3,0-5.8,0.1-8.6,0c-3.5-0.1-5.8-2.3-5.9-5.5c0-3.1,2.3-5.5,5.8-5.7c2.8-0.2,5.7,0,8.7,0c0-6.7,0-13,0-19.7
		c-8,0-15.9-0.7-23.6,0.2c-11.5,1.3-20.2-2.1-27.2-11.3c-3.4-4.5-8.1-8.1-12-12.3c-1.5-1.6-2.7-1.7-4.7-0.8
		c-12.7,5.7-27.1-0.4-32-13.3c-4.8-12.8,2.4-27.2,15.5-31.1c13.2-3.9,26.7,4,29.9,17.6c1.2,5.3,0.8,10.4-1.7,15.3
		c-0.9,1.8-0.6,2.8,0.7,4.2c6.2,6.1,12.4,12.3,18.6,18.5c0.8,0.8,2,1.7,3.1,1.7c10,0.1,20,0.1,29.9,0.1c1.1,0,2.2,0,3.8,0
		c0-7-0.1-13.7,0-20.4c0.2-14.7-1.8-10.8,9.9-19.8c7-5.4,14.1-10.6,21.2-15.9c3.9-2.9,5.5-2.9,9.4-0.1c9.2,6.9,18.3,13.8,27.6,20.6
		c2.7,2,3.8,4.3,3.8,7.6c-0.1,9.2,0,18.4,0,28c9.1,0,18-0.4,26.8,0.1c6,0.4,10.3-1.4,14.2-5.9c5-5.7,10.7-10.8,16.2-16.3
		c-3.1-5.9-4.3-11.8-2.7-18.2c3.4-13.3,16.9-21,29.9-17c12.9,3.9,20,18.1,15.3,30.8c-4.7,12.8-19,19.1-31.5,13.7
		c-2.7-1.2-4-0.8-6,1.2c-6.5,6.7-13.1,13.4-19.9,19.8c-1.7,1.6-4.5,2.8-6.9,2.8c-12.1,0.3-24.2,0.1-36.3,0.1c-7.8,0-7.8,0-12.2,7.1
		c3,3.8,6.1,7.9,9.4,11.7c0.6,0.7,2,0.8,3.1,0.8c3.1,0.1,6.2-0.1,9.4,0.1c3.5,0.2,5.8,2.6,5.7,5.7c0,3.1-2.3,5.3-5.9,5.5
		c-2.7,0.1-5.5,0-8.1,0c-0.7,4.9-1.4,9.5-2.1,14.5c7.7,0,16,0.1,24.3-0.1c0.9,0,1.9-1.9,2.5-3.1c4.1-9.6,13.9-15.8,23.8-14.8
		c10.9,1.1,19.4,8.6,21.5,18.9c2.5,12.2-4.5,23.9-16.3,27.5c-11.6,3.6-24.1-2.1-28.6-13.5c-1.3-3.1-2.9-3.7-5.8-3.6
		c-8.5,0.1-17,0.1-25.4,0.1c-5,0-5,0-7.5,4.6c3.2,4.8,6.3,9.7,9.7,14.5c0.6,0.9,2.3,1.3,3.5,1.3c5.4,0.1,10.7,0,16.1,0.1
		c4.1,0,6.5,2.2,6.4,5.7c0,3.4-2.4,5.5-6.6,5.5c-5.2,0.1-10.4,0-15.8,0c0,4.9,0,9.5,0,14.4c6.9,0,13.6,0,20.3,0
		c5.1,0,10.3-0.3,15.3,0.1c2.3,0.2,4.9,1.2,6.5,2.7c7,6.6,13.7,13.4,20.4,20.3c1.6,1.6,2.7,2.1,5,1c10.6-4.9,23-1.2,29.4,8.3
		c6.3,9.3,5.1,21.9-2.9,29.9c-8.1,8.2-20.6,9.4-30.2,3c-9.4-6.3-13.1-18.6-8.4-29.1c1.1-2.4,0.8-3.7-1-5.4
		c-6-5.8-11.8-11.8-17.8-17.7c-0.8-0.8-1.9-1.5-3-2c-0.5-0.2-1.2-0.1-1.9-0.1c-10.6,0-21.1,0-32.2,0c0,3.2,0,6,0,8.8
		c0,10.9,0.1,21.7-0.1,32.6c0,2.9,0.7,4.6,3.5,6.1c16.5,9.1,28.4,22.5,35.7,39.9c1.7,4.1,0.9,7.2-2.2,8.6c-3.3,1.5-6.2,0-8.1-4.3
		c-10.1-22.9-27.2-37-51.8-42c-42.7-8.6-83.9,25.9-82.9,69.6c0.9,39.5,32.5,69.9,71.9,69.1c35.4-0.6,65.6-29.5,67.8-64.8
		c0.1-2,0.2-4,0.3-6c0.2-4,2.2-6.2,5.5-6.2c3.4,0,5.7,2.4,5.7,6.5c0,9.8-1.3,19.5-5,28.6c-12.1,29.9-33.9,47.5-65.9,52.5
		c-1,0.2-1.9,0.5-2.9,0.7C208,394.8,203,394.8,198,394.8z M301.2,132.1c0-6.8-5.8-12.6-12.7-12.5c-6.9,0.1-12.6,5.9-12.4,12.8
		c0.1,6.7,5.8,12.3,12.5,12.4C295.4,144.7,301.2,139,301.2,132.1z M122.3,144.7c6.8,0.1,12.6-5.7,12.6-12.6
		c0-6.7-5.5-12.4-12.3-12.5c-6.8-0.2-12.7,5.5-12.8,12.4C109.7,138.8,115.4,144.6,122.3,144.7z M331.4,229.8c0-7-5.4-12.5-12.4-12.6
		c-6.9,0-12.3,5.3-12.5,12.2c-0.1,7,5.3,12.7,12.3,12.8C325.7,242.2,331.3,236.8,331.4,229.8z M104.5,229.8
		c0.1-7.1-5.3-12.6-12.4-12.6c-6.9,0-12.4,5.3-12.5,12.1c-0.1,7.1,5.2,12.7,12.2,12.8C98.8,242.3,104.5,236.8,104.5,229.8z
		 M318.9,47.8c7,0,12.5-5.5,12.5-12.5c0-6.9-5.4-12.3-12.2-12.5c-7-0.1-12.6,5.4-12.7,12.4C306.4,42.2,311.9,47.8,318.9,47.8z
		 M92,47.8c7,0.1,12.6-5.5,12.6-12.5c0-6.9-5.3-12.4-12.2-12.5c-7-0.2-12.7,5.3-12.7,12.3C79.5,42.2,85,47.8,92,47.8z"/>
	<path style="fill:#FFFFFF;" d="M205.6,272.5c7.2,0,14.5-0.1,21.7,0c12.7,0.2,21.7,8.9,21.6,20.8c-0.1,11.9-9.3,20.6-21.9,20.6
		c-14.8,0-29.6,0.1-44.5,0c-10.6-0.1-19.2-7.9-20.4-18.2c-1.2-10.1,5-19.6,14.8-22.3c2.4-0.7,4.9-0.8,7.4-0.9
		C191.4,272.4,198.5,272.5,205.6,272.5z M205.3,302.7c7.2,0,14.4,0,21.7,0c6.5,0,10.7-3.7,10.7-9.4c0.1-5.7-4-9.6-10.5-9.6
		c-14.4-0.1-28.9-0.1-43.3,0c-6.5,0-10.6,3.8-10.5,9.5c0,5.7,4.2,9.4,10.7,9.5C191.1,302.8,198.2,302.7,205.3,302.7z"/>
	<path style="fill:#FFFFFF;" d="M226.3,350.5c0.1,11.3-9.1,20.7-20.5,20.9c-11.4,0.2-21-9.4-21-20.8c0-11.3,9.4-20.7,20.7-20.7
		C216.7,329.8,226.1,339.2,226.3,350.5z M196,350.8c0.1,5.2,4.6,9.5,9.7,9.4c5-0.1,9.2-4.4,9.3-9.4c0-5.1-4.4-9.6-9.5-9.6
		C200.3,341.2,195.9,345.6,196,350.8z"/>
</g>
</svg>
