<?xml version="1.0" encoding="utf-8"?>
<!-- Generator: Adobe Illustrator 26.0.1, SVG Export Plug-In . SVG Version: 6.00 Build 0)  -->
<svg version="1.1" id="Слой_1" xmlns="http://www.w3.org/2000/svg" xmlns:xlink="http://www.w3.org/1999/xlink" x="0px" y="0px"
	 viewBox="0 0 400 400" style="enable-background:new 0 0 400 400;" xml:space="preserve">
<g>
	<path style="fill:#12abdb;" d="M248.8,9.6c35.2,35.2,70.3,70.4,105.6,105.6c2.3,2.3,2.6,4.9,2.6,7.9c0,35,0,70,0,105
		c0,29.7,0,59.5,0,89.2c0,1.1,0,2.3,0,3.4c-0.2,4.2-2.3,6.4-5.8,6.3c-3.3-0.1-5.2-2.3-5.4-6.3c-0.1-1.4,0-2.7,0-4.1
		c0-61.7,0-123.5,0-185.2c0-1.6,0-3.2,0-5.4c-1.7,0-3.1,0-4.5,0c-25.9,0-51.9,0-77.8,0c-13.9,0-22.4-8.4-22.4-22.4
		c-0.1-25.7,0-51.5,0-77.2c0-1.6,0-3.2,0-5.4c-1.6,0-2.9,0-4.2,0c-45.9,0-91.8,0-137.7,0c-8.2,0-11.5,3.3-11.6,11.6
		c0,7.1,0,14.2,0,21.4c0,1.1,0,2.3-0.1,3.4c-0.3,3.3-2.6,5.5-5.5,5.5c-2.9,0-5.5-2.2-5.5-5.4C76.4,47.2,76,37,76.8,27
		c0.6-7.8,5.6-13.1,12.9-16c1.1-0.5,2.3-0.9,3.4-1.3C145,9.6,196.9,9.6,248.8,9.6z M336.5,114.6c-28.1-28.1-56.1-56.2-84-84.2
		c0,0.4-0.2,1.2-0.2,2c0,23.8-0.1,47.7,0,71.5c0,7.1,3.7,10.6,10.7,10.6c23.7,0,47.4,0,71,0C334.9,114.6,335.8,114.6,336.5,114.6z"
		/>
	<path style="fill:#12abdb;" d="M93.1,393.6c-3-1.5-6.2-2.6-8.9-4.5c-4.7-3.4-7.2-8.2-7.7-14c-0.2-2.1-0.2-4.2-0.2-6.4
		c0-94.4,0-188.7,0-283.1c0-1.7-0.1-3.5,0.2-5.2c0.5-3,2.6-4.6,5.5-4.5c2.7,0.1,4.7,1.6,5.2,4.5c0.3,1.7,0.2,3.5,0.2,5.2
		c0,94.4,0,188.7,0,283.1c0,1.7,0,3.5,0.2,5.2c0.5,4.7,3.9,8,8.6,8.4c1.2,0.1,2.5,0.1,3.7,0.1c77.7,0,155.4,0,233.2,0
		c9.6,0,12.5-3,12.6-12.5c0-7.6,0-15.2,0-22.9c0-4.5,2.1-7,5.4-7.2c3.5-0.1,5.7,2.6,5.8,7.2c0.1,7,0,14,0,21
		c0,15.1-3.2,20-16.8,25.6C257.8,393.6,175.5,393.6,93.1,393.6z"/>
	<path style="fill:#12abdb;" d="M216.9,169c23.9,0,47.9,0,71.8,0c12.4,0,20.6,10.7,16.9,21.9c-2.2,6.6-6.9,10.6-13.8,11.5
		c-2,0.3-4,0.3-6,0.3c-46.1,0-92.3,0-138.4,0c-2.7,0-5.5,0-8.2-0.7c-7.8-1.9-13.1-9.7-12.4-17.8c0.7-8,7.1-14.6,15.2-15
		c8.1-0.4,16.2-0.2,24.3-0.2C183.2,169,200,169,216.9,169z M217,180.3c-23.4,0-46.9,0-70.3,0c-1.4,0-2.8-0.1-4.1,0.2
		c-2.8,0.5-4.4,2.4-4.4,5.2c-0.1,2.8,1.4,4.8,4.2,5.4c1.6,0.4,3.2,0.4,4.8,0.4c46.4,0,92.8,0,139.1,0c1.4,0,2.8,0,4.1-0.2
		c3.2-0.5,4.9-2.5,4.8-5.7c-0.1-3.2-2.1-5-5.2-5.3c-1.2-0.1-2.5-0.1-3.7-0.1C263.1,180.3,240.1,180.3,217,180.3z"/>
	<path style="fill:#12abdb;" d="M216.6,214c24.1,0,48.1,0,72.2,0c10.6,0,18.1,7.7,17.6,17.6c-0.4,8-6.5,14.7-14.4,15.8
		c-1.6,0.2-3.2,0.3-4.8,0.3c-47,0-94,0-141,0c-10.4,0-17-4.8-18.9-13.5c-2.1-9.3,4.5-18.8,13.9-20c1.7-0.2,3.5-0.2,5.2-0.2
		C169.8,214,193.2,214,216.6,214z M216.6,225.3c-23.3,0-46.6,0-69.9,0c-5.9,0-8.5,1.6-8.6,5.4c-0.1,3.9,2.7,5.8,8.6,5.8
		c46.6,0,93.3,0,139.9,0c1.4,0,2.8,0,4.1-0.3c3-0.6,4.6-2.6,4.5-5.6c-0.1-3-1.8-4.8-4.8-5.3c-1.2-0.2-2.5-0.1-3.7-0.1
		C263.3,225.3,240,225.3,216.6,225.3z"/>
	<path style="fill:#12abdb;" d="M216.6,259c24.1,0,48.1,0,72.2,0c10.1,0,17.5,7,17.6,16.5c0.1,8.7-6.2,15.9-14.8,16.9
		c-1.9,0.2-3.7,0.3-5.6,0.3c-46.3,0-92.5,0-138.8,0c-2.8,0-5.8-0.1-8.5-0.9c-7.9-2.2-12.9-10.1-11.8-18.2
		c1.1-8.3,7.8-14.5,16.4-14.6c9.8-0.2,19.7-0.1,29.6-0.1C187.5,259,202,259,216.6,259z M216.6,270.3c-23.3,0-46.6,0-69.9,0
		c-5.9,0-8.5,1.6-8.6,5.4c-0.1,3.9,2.7,5.8,8.6,5.8c46.6,0,93.3,0,139.9,0c1.4,0,2.8,0,4.1-0.3c3-0.6,4.6-2.6,4.5-5.6
		c-0.1-3-1.8-4.8-4.9-5.3c-1.2-0.2-2.5-0.1-3.7-0.1C263.3,270.3,240,270.3,216.6,270.3z"/>
	<path style="fill:#12abdb;" d="M185.3,304c13.8,0,27.7-0.1,41.5,0c8.7,0.1,15.3,6,16.6,14.4c1.2,8-3.7,15.9-11.5,18.4
		c-2.1,0.7-4.4,0.9-6.6,0.9c-10.1,0.1-20.2,0.1-30.3,0c-1,0-2-0.1-3-0.3c-3-0.7-4.6-2.7-4.4-5.6c0.1-2.9,1.9-5,4.9-5.2
		c4.1-0.2,8.2-0.1,12.3-0.1c6.9,0,13.7,0.1,20.6,0c4.4-0.1,6.9-2.2,6.9-5.7c0-3.5-2.5-5.5-7-5.5c-26.8,0-53.6,0-80.4,0
		c-4.4,0-6.9,2.2-6.8,5.7c0.1,3.3,2.5,5.5,6.7,5.5c7.4,0.1,14.7,0,22.1,0.1c4.4,0,7,2.1,7,5.5c0,3.4-2.6,5.7-6.9,5.7
		c-8.4,0-16.7,0.2-25-0.3c-8.2-0.5-14.4-7.1-15-15.1c-0.7-7.9,4.2-15.2,11.8-17.5c2.1-0.6,4.4-0.8,6.6-0.8
		C158.6,304,172,304,185.3,304z"/>
</g>
</svg>
