<?xml version="1.0" encoding="utf-8"?>
<!-- Generator: Adobe Illustrator 26.0.1, SVG Export Plug-In . SVG Version: 6.00 Build 0)  -->
<svg version="1.1" id="Слой_1" xmlns="http://www.w3.org/2000/svg" xmlns:xlink="http://www.w3.org/1999/xlink" x="0px" y="0px"
	 viewBox="0 0 400 400" style="enable-background:new 0 0 400 400;" xml:space="preserve">
<g>
	<path style="fill:#FFFFFF;" d="M8.9,100.5c0.6-1.9,1-3.8,1.8-5.6c4.5-11,12.7-17.3,24.7-18.4c0.6-0.1,1.2-0.1,1.9-0.1
		c0.2,0,0.5-0.1,1.5-0.4c0-4.7-0.2-9.6,0-14.6c0.6-12.4,9-22.5,21.1-25.6c2.5-0.6,5.2-1,7.8-1c26.1,0,52.2-0.1,78.4,0.1
		c12.8,0.1,22.8,5.5,30,16.1c1.1,1.7,2.2,3.3,3.3,5c5,7.2,11.9,10.8,20.6,10.8c20.2,0,40.5,0,60.7,0c1.4,0,2.8-0.1,4.1,0.3
		c2.7,0.7,4.3,2.7,4.2,5.5c-0.1,2.9-1.8,4.8-4.8,5.3c-1,0.2-2,0.1-3,0.1c-20,0-40-0.1-60,0c-13.9,0.1-24.5-5.6-32.1-17.2
		c-1.6-2.5-3.3-5-5.3-7.2c-4.9-5.4-11.3-7.6-18.5-7.6C119.5,46,93.8,46,68,46C56.9,46,50,53,49.9,64c-0.1,4,0,7.9,0,12.4
		c1.7,0,3,0,4.4,0c20.2,0,40.5,0.1,60.7,0c13.9-0.1,24.6,5.5,32.1,17.1c0.5,0.7,1,1.4,1.5,2.2c5.4,9,13.4,12.7,23.8,12.7
		c55.6-0.1,111.2-0.1,166.8,0c3.2,0,6.6,0.1,9.6,1.1c8.4,2.7,13.2,8.7,14.3,17.4c0.3,2.1,0.2,4.2,0.2,6.4c0,57.3,0,114.5,0,171.8
		c0,1.7,0,3.5,0,5.7c4.9,0,9.6,0.4,14.2-0.2c1.6-0.2,2.9-2.9,4-4.6c0.5-0.8,0.1-2.2,0.1-3.3c0-70.6,0-141.2,0-211.8
		c0-9.5-3.2-12.7-12.8-12.7c-25.4,0-50.7,0-76.1,0c-1.2,0-2.5,0.1-3.7-0.1c-2.8-0.5-4.5-2.2-4.7-5c-0.3-3,1.3-5,4.2-5.8
		c1.3-0.4,2.7-0.3,4.1-0.3c24.9,0,49.7,0,74.6,0c15.2,0,20.2,3.3,25.8,17.2c0,75.1,0,150.2,0,225.3c-1.4,2.4-2.5,5.1-4.3,7.3
		c-3.2,3.9-7.5,5.6-12.6,5.6c-4.1,0-8.2,0-12.7,0c0,2.5,0,4.6,0,6.7c0,5.7,0.1,11.5,0,17.2c-0.2,10.9-7,17.7-18,17.7
		c-18.2,0.1-36.5,0-54.7,0c-68.7,0-137.5-0.1-206.2-0.1c-1.4,0-2.8,0-4.1-0.1c-3.4-0.4-5.4-2.5-5.4-5.6c0-3.1,2-5.2,5.5-5.5
		c1.4-0.1,2.7-0.1,4.1-0.1c86.1,0,172.2,0.1,258.4,0.1c8.1,0,9.3-1.1,9.3-9.3c0-70.1,0-140.2,0-210.3c0-1.6,0-3.3-0.2-4.9
		c-0.6-4.6-3.7-7.7-8.3-8.2c-1.7-0.2-3.5-0.2-5.2-0.2c-55,0-110-0.1-165,0.1c-15.2,0.1-26.9-5.5-34.7-18.7
		c-5.7-9.6-14.1-13.6-25.3-13.5c-24.5,0.3-49,0.4-73.5-0.1c-13.1-0.3-19.8,9-19.8,19.6c0.2,77.2,0.1,154.4,0.1,231.7
		c0,10,3.5,13.5,13.5,13.6c5.7,0,11.5,0,17.2,0c1,0,2,0,3,0.1c3.6,0.4,5.6,2.6,5.5,5.8c-0.1,3.1-2.2,5.2-5.7,5.2
		c-8.2,0.1-16.5,0.3-24.7-0.1c-9.1-0.5-15.2-5.6-18.6-14c-0.5-1.1-0.9-2.2-1.4-3.4C8.9,264.2,8.9,182.3,8.9,100.5z"/>
	<path style="fill:#FFFFFF;" d="M88.7,181.6c-11,0-22,0-33,0c-8.4,0-12.4-4-12.5-12.3c0-6.9-0.1-13.7,0-20.6
		c0.1-7.5,4-11.8,11.4-11.9c22.9-0.1,45.7-0.1,68.6,0c7.2,0,11.3,4.4,11.4,11.6c0.1,7.2,0.1,14.5,0,21.7
		c-0.1,7.1-4.4,11.4-11.5,11.5C111.7,181.6,100.2,181.5,88.7,181.6z M123.3,148.2c-23.1,0-45.8,0-68.6,0c0,7.4,0,14.6,0,21.8
		c23,0,45.7,0,68.6,0C123.3,162.6,123.3,155.6,123.3,148.2z"/>
</g>
</svg>
