<svg id="Слой_1" width='10' data-name="Слой 1" xmlns="http://www.w3.org/2000/svg" viewBox="0 0 151.24738 78.74066"><defs><style>.cls-1{fill:#fff;}.cls-2{fill:#11addf;}</style></defs><path class="cls-1" d="M1598.92392,623.154c.62342-.683,1.30613-1.276,1.90684-1.94916.91273-1.02283,1.89273-1.98537,2.81877-2.99673q1.00767-1.10047,2.02993-2.18661c1.09624-1.16843,2.1774-2.35085,3.27942-3.51429.67468-.71228,1.33271-1.441,2.00489-2.1565,1.10588-1.17722,2.19407-2.37084,3.30639-3.54247.66649-.702,1.31527-1.42172,1.97751-2.1287,1.1131-1.18831,2.20447-2.39672,3.33754-3.56674.67362-.69559,1.32318-1.41464,1.97736-2.1288q1.64983-1.80111,3.33068-3.57317c.65706-.69312,1.29129-1.40829,1.951-2.10015q1.6988-1.78164,3.36236-3.59669c.63565-.69621,1.27313-1.38995,1.92225-2.07375q1.70831-1.79958,3.38951-3.62474.95512-1.04266,1.91664-2.07885c.46431-.50249.94242-.99276,1.42689-1.49369.08728.05555.02664.16871.02666.25677q.0051,31.75465.00948,63.50931c.0001.29707-.0623.40109-.37942.38965-.71462-.02578-1.43156-.02709-2.14605.00044-.32535.01255-.41075-.10508-.37092-.39462a2.01742,2.01742,0,0,0,.00191-.27281V587.689l.0988.12335a16.78339,16.78339,0,0,0-1.62111,1.41271c-.41345.4578-.86472.881-1.25733,1.36254-.48936.60015-1.06522,1.12936-1.5969,1.6956-1.11454,1.187-2.23473,2.36893-3.33258,3.57121-.61815.67694-1.23344,1.35566-1.86607,2.01954q-1.65792,1.73979-3.28,3.51353c-.63524.6966-1.27022,1.39249-1.92094,2.075q-1.63165,1.71141-3.22576,3.45847c-.64382.70639-1.28791,1.41153-1.948,2.10307q-1.619,1.696-3.19774,3.43027c-.65179.71679-1.30746,1.429-1.97571,2.13059q-1.60365,1.68376-3.17011,3.40272-.9903,1.09011-2.0032,2.15827-1.5906,1.66925-3.14334,3.37439c-1.01661,1.11862-2.05349,2.21784-3.08487,3.32254-1.03127,1.10459-2.03456,2.23542-3.0955,3.31233-.12177.1236-.17272.42255-.34954.35516-.186-.07089-.07133-.3469-.0714-.5285q-.00761-20.8902.00546-41.78038c.00036-.41465-.11414-.49821-.50943-.498q-34.97141.0147-69.94279.00877c-.51649,0-.51657.00006-.51657.511q0,24.44016,0,48.88032c0,.543,0,.543-.52364.543q-14.34373,0-28.68746.00954c-.38167.00048-.46163-.0964-.46142-.46753q.01521-25.84453.00135-51.68908c-.00017-.346.07213-.46666.43939-.44939.688.03235,1.37952.02985,2.06781.00058.34039-.01447.4402.10195.39073.41438a1.76274,1.76274,0,0,0-.00215.27273q0,24.38165-.00964,48.76329c-.00028.40766.10342.50282.50554.50214q11.41641-.01917,22.83285-.00062c.38072.00059.491-.07323.49068-.47814q-.0183-24.47916-.0104-48.95834c0-.50664.0001-.5067.52093-.5067q37.93771,0,75.87544-.00931c.40364-.00017.505.09684.50463.50286q-.01761,18.58856-.00957,37.17712Z" transform="translate(-1487.75262 -576.54818)"/><path class="cls-1" d="M1591.508,642.00242c.60064-.66151,1.12952-1.23782,1.65118-1.82059.37068-.41409.7709-.79921,1.14252-1.21394.90623-1.01133,1.87157-1.96945,2.79142-2.96893,1.05871-1.15034,2.11948-2.29824,3.1947-3.43339.66572-.70283,1.31647-1.42071,1.97639-2.12971,1.0562-1.13478,2.10844-2.27308,3.16916-3.4038,1.00714-1.07362,2.00432-2.157,3.00564-3.23634q1.58161-1.70478,3.17023-3.40279.9924-1.0606,1.97545-2.13062,1.57712-1.7091,3.17034-3.40271,1.00551-1.07509,2.00282-2.15841c1.04192-1.13049,2.09679-2.24862,3.14315-3.37473,1.011-1.088,2.01134-2.18577,3.03495-3.2624q1.57531-1.65688,3.11464-3.34784c1.03383-1.13812,2.07571-2.26818,3.14472-3.37332a3.35593,3.35593,0,0,0,.22727-.29764.72125.72125,0,0,1,.05094.44029q.00392,18.78359.00242,37.56717c0,2.39265-.00521,4.78533.00683,7.17792.00145.28811-.06525.37672-.36263.3675-.74087-.02295-1.48305-.0153-2.22442-.00293-.22637.00378-.3501-.04-.31029-.29537a1.78949,1.78949,0,0,0,.0022-.27274v-37.611c-.15358-.02152-.20281.10822-.27337.18307-1.15254,1.22261-2.31079,2.44015-3.44508,3.67956-.6628.72422-1.33332,1.44074-2.00152,2.15971q-1.60963,1.73194-3.22562,3.4578-1.04668,1.11671-2.0858,2.241c-1.0731,1.15463-2.138,2.31659-3.22888,3.4548-.67006.69914-1.32249,1.41531-1.97673,2.12943q-1.65,1.801-3.3305,3.57332c-.66564.70292-1.31679,1.4204-1.97687,2.12926-1.10964,1.19163-2.21457,2.38736-3.33432,3.56976-.64774.684-1.27647,1.38673-1.92478,2.07122-1.11072,1.17268-2.21753,2.3494-3.30652,3.54219q-.9666,1.05871-1.94771,2.1033c-1.124,1.19591-2.23087,2.40765-3.36094,3.59826-.63951.67379-1.25628,1.36984-1.89555,2.04516-.84224.88973-1.65724,1.80521-2.486,2.70776-.049.05332-.09458.14256-.18589.11086-.09827-.03413-.05288-.13176-.058-.202-.00748-.10349-.002-.20792-.002-.312q0-26.80026.00867-53.60051c.00021-.38072-.07341-.49132-.47836-.4905q-10.85045.02188-21.70093-.00035c-.41013-.00086-.476.11738-.47575.49307q.01442,24.51814.01775,49.03628c.00027.4051-.09729.52465-.50459.5039-.70073-.0357-1.4047-.01712-2.10707-.00559-.21314.0035-.32085-.04691-.28778-.27791a1.6661,1.6661,0,0,0,.00167-.23381q0-25.864,0-51.728c0-.50766.00007-.50772.5199-.50772q8.11835,0,16.23668-.00061c.465-.00008.92082.12194,1.39.08074a60.22035,60.22035,0,0,1,6.151-.05993c1.30848.019,2.61787.04743,3.92707.05411.19309.001.29722.04.27024.25616a2.53646,2.53646,0,0,0-.00208.31182v49.51273Z" transform="translate(-1487.75262 -576.54818)"/><path class="cls-2" d="M1563.49116,576.555q37.487,0,74.97406.00137c.599,0,.52048-.0868.5242.50554.005.79315-.01694,1.587.00981,2.37924.01144.33889-.10364.44208-.41658.39258a1.5139,1.5139,0,0,0-.2339-.00179h-149.753a2.73376,2.73376,0,0,0-.312.002c-.213.02462-.29491-.04365-.29166-.275q.01914-1.365,0-2.73038c-.00321-.23041.07715-.30057.291-.27562a2.711,2.711,0,0,0,.312.002Z" transform="translate(-1487.75262 -576.54818)"/><path class="cls-1" d="M1558.25342,618.23561q0,12.95067.00941,25.90132c.00054.37905-.09062.47986-.46671.46328-.74009-.03265-1.48275-.01672-2.2241-.00523-.21467.00333-.31729-.04954-.28715-.27915a2.41477,2.41477,0,0,0,.00218-.31177q0-24.47732.0101-48.95463c.00029-.40037-.10324-.48106-.48839-.4804q-10.96683.01862-21.93368.0004c-.36757-.00059-.47028.07389-.46995.459q.0174,19.75755,0,39.51512c-.00034.385.10167.46379.47.45961,1.80806-.02054,3.61654-.00252,5.42473-.01626.28871-.0022.36735.067.36693.36252q-.01374,9.791.00066,19.582c.00048.30846-.09836.36133-.375.35449-.74108-.0183-1.48346-.02289-2.22418.00165-.31348.01039-.38193-.08724-.38144-.38776.009-5.59113.00254-11.18229.01552-16.77342.00089-.381-.07318-.4971-.47886-.49108-1.76888.02627-3.53847.00141-5.30755.02-.337.00354-.39659-.09949-.39643-.4128q.012-22.46862.00052-44.93725c-.00015-.30054.06953-.38649.381-.388,2.20655-.01065,4.413-.06327,6.61947-.06627,7.09007-.00963,14.18016-.00065,21.27023-.01206.36334-.00059.47318.06719.4726.45637Q1558.24389,605.26542,1558.25342,618.23561Z" transform="translate(-1487.75262 -576.54818)"/><path class="cls-1" d="M1487.7631,614.78391q0-14.62746-.01048-29.2549c-.00055-.40428.10727-.49654.49085-.4788.701.03242,1.40474.019,2.10689.0038.23824-.00517.33828.05884.30343.30319a2.22948,2.22948,0,0,0-.00239.31171q0,27.85076-.01,55.70151c-.00026.41426.11358.49856.50917.49824q19.806-.016,39.612-.01734c.37814-.00029.4941.06905.49234.47675q-.027,6.26045-.00184,12.52106c.00126.36627-.104.45131-.45044.43849-.71451-.02641-1.43117-.02327-2.14594-.00072-.30423.0096-.38769-.0731-.38656-.38273.012-3.25051.00739-6.50108.00738-9.75163,0-.56191,0-.56194-.54362-.56194q-19.74747,0-39.49491.00942c-.39058.00033-.48616-.08828-.48565-.48312Q1487.77207,629.45043,1487.7631,614.78391Z" transform="translate(-1487.75262 -576.54818)"/></svg>