<?xml version="1.0" encoding="utf-8"?>
<!-- Generator: Adobe Illustrator 26.0.1, SVG Export Plug-In . SVG Version: 6.00 Build 0)  -->
<svg version="1.1" id="Слой_1" xmlns="http://www.w3.org/2000/svg" xmlns:xlink="http://www.w3.org/1999/xlink" x="0px" y="0px"
	 viewBox="0 0 935.6 484.4" style="enable-background:new 0 0 935.6 484.4;" xml:space="preserve">
<style type="text/css">
	.st0{fill:#FFFFFF;}
	.st1{fill:#15ACDB;}
</style>
<g>
	<path class="st0" d="M669.9,321.2c1-0.7,1.4-1.5,1.8-2.1c32.7-49.3,65.4-98.6,98-147.8c22.6-34,45.1-68.1,67.7-102.1
		c0.9-1.4,1.8-1.9,3.5-1.9c22.2,0.1,44.3,0,66.5,0c0.5,0,1,0,1.4,0c0.7,0,1,0.3,1,1c0,0.6,0,1.1,0,1.7c0,130.1,0,260.2,0,390.3
		c0,3.2,0.4,2.8-2.8,2.8c-5.6,0-11.2,0-16.8,0c-2.8,0-2.5,0.3-2.5-2.6c0-0.5,0-1,0-1.4c0-122.6,0-245.2,0-367.8c0-3.2,0-3.2-3.3-3.2
		c-10.2,0-20.5,0-30.7,0c-1.7,0-2.5,0.6-3.4,1.9c-42,63.3-84,126.5-126,189.7c-24.8,37.3-49.6,74.7-74.4,112
		c-0.5,0.7-0.8,1.5-1.7,2.2c-0.4-0.9-0.2-1.7-0.2-2.5c0-47.9,0-95.8,0-143.7c0-52.1,0-104.3,0-156.4c0-3.6,0.4-3.1-3-3.1
		c-26.2,0-52.3-0.1-78.5-0.1c-81.4,0-162.8,0-244.3,0.1c-23.5,0-47,0-70.5-0.1c-4.7,0-9.4,0-14.2,0.1c-1.8,0-1.8,0-1.8,1.9
		c0,0.6,0,1.1,0,1.7c0,105.9,0,211.8,0,317.6c0,3.1,0,3.1-3.2,3.1c-50.4,0-100.8,0-151.2,0c-3.6,0-3,0.4-3-3
		c0-113.1,0-226.2,0-339.2c0-2.9,0-2.9,2.9-2.9c5.8,0,11.7,0,17.5,0c1.2,0,1.8,0.2,1.6,1.5c-0.1,0.6,0,1.3,0,1.9
		c0,106,0,211.9,0,317.9c0,3.5-0.5,3,3,3c35.8,0,71.5,0,107.3,0c3.3,0,2.9,0.5,2.9-2.9c0-99.3,0-198.6,0-298c0-7.2,0-14.4-0.1-21.6
		c0-1.9-0.2-1.9,1.8-1.9c0.5,0,1,0,1.4,0c150,0,300.1,0,450.1,0c3.1,0,3.1,0,3.1,3.1c0,82.6,0,165.2,0,247.8
		C669.9,319.1,669.9,319.9,669.9,321.2z"/>
	<path class="st0" d="M853.8,136.9c0.4,1.1,0.3,1.9,0.3,2.7c0,106.9,0,213.8,0,320.8c0,0.2,0,0.5,0,0.7c0,2.3,0,2.1-2.1,2.1
		c-6.1,0-12.2,0-18.2,0c-1.7,0-1.7,0-1.8-1.7c0-0.6,0-1.3,0-1.9c0-82.2,0-164.4,0-246.6c0-0.9,0-1.9,0-3.1c-1,0.7-1.3,1.5-1.8,2.2
		c-54.8,82.2-109.6,164.4-164.4,246.5c-0.8,1.2-1.6,2.4-2.4,3.6c-0.5,0.8-1.1,1.1-2,1c-0.2,0-0.3,0-0.5,0c-21.8,0-43.7,0-65.5,0
		c-2.1,0-2.1,0.2-2.1-2.1c0-0.5,0-1,0-1.4c0-105.9,0-211.8,0-317.6c0-3.2,0-3.2-3.2-3.2c-35.2,0-70.4,0-105.6,0c-3,0-3,0-3,2.9
		c0,106,0,212.1,0,318.1c0,3.3,0,3.3-3.5,3.3c-5.6,0-11.2,0-16.8,0c-1.8,0-1.8,0-1.8-1.9c0-0.4,0-0.8,0-1.2c0-113.1,0-226.1,0-339.2
		c0-3.2,0-3.2,3.1-3.2c49.9,0,99.8,0,149.7,0c3,0,3,0,3,3.1c0,106.1,0,212.2,0,318.4c0,3.1,0,3.1,3.2,3.1c9.9,0,19.8,0,29.8,0
		c1.7,0,2.6-0.6,3.4-1.9c49.8-74.9,99.7-149.8,149.5-224.7c17-25.5,34-51.1,51-76.6C852.8,138.3,853.2,137.8,853.8,136.9z"/>
	<path class="st1" d="M466.8,40.9c-146.4,0-292.7,0-439.1,0c-3.9,0-3.4,0.6-3.4-3.4c0-5.1,0-10.2,0-15.4c0-2.2,0-2.2,2.3-2.2
		c0.5,0,1,0,1.4,0c292.6,0,585.3,0,877.9,0c4.2,0,3.7-0.5,3.7,3.7c0,5.1,0,10.2,0,15.4c0,1.9,0,1.9-1.8,1.9c-0.7,0-1.4,0-2.2,0
		C759.3,40.9,613.1,40.9,466.8,40.9z"/>
	<path class="st0" d="M427.4,290.2c0,56.6,0,113.2,0,169.9c0,3.5,0.5,3-3,3c-5.8,0-11.5,0-17.3,0c-1.7,0-1.7,0-1.8-1.7
		c0-0.6,0-1.1,0-1.7c0-106,0-211.9,0-317.9c0-3.1,0-3.1-3-3.1c-36.6,0-73.3,0-109.9,0c-0.4,0-0.8,0-1.2,0c-1.8,0-1.8,0-1.8,1.9
		c0,0.4,0,0.8,0,1.2c0,82.2,0,164.4,0,246.6c0,3.1,0,3.1,3.2,3.1c10.6,0,21.3,0,31.9,0c0.6,0,1.1,0,1.7,0c0.8-0.1,1.1,0.2,1.1,1.1
		c0,6.2,0,12.5,0,18.7c0,0.7-0.2,1-1,1c-0.6,0-1.1,0-1.7,0c-18.2,0-36.5,0-54.7,0c-3.1,0-2.6,0.3-2.6-2.7c0-96.4,0-192.9,0-289.3
		c0-3-0.4-2.7,2.7-2.7c51.5,0,103,0,154.5,0c3.4,0,2.9-0.4,2.9,3C427.4,177.1,427.4,233.7,427.4,290.2z"/>
	<path class="st0" d="M24.3,265.1c0-65,0-130,0-195c0-2.8,0-2.8,2.7-2.8c5.8,0,11.5,0,17.3,0c2.3,0,2-0.1,2,2.1c0,0.5,0,1,0,1.4
		c0,122.7,0,245.5,0,368.2c0,3.1,0,3.1,3.2,3.1c91.6,0,183.1,0,274.7,0c3.4,0,3-0.6,3,3c0,5.4,0,10.7,0,16.1c0,1.8,0,1.8-1.8,1.8
		c-0.4,0-0.8,0-1.2,0c-98.9,0-197.9,0-296.8,0c-3.1,0-3.1,0-3.1-3.2C24.3,395,24.3,330.1,24.3,265.1z"/>
</g>
</svg>
