<svg id="Слой_1" data-name="Слой 1" xmlns="http://www.w3.org/2000/svg" viewBox="0 0 1143.23745 768">
  <defs>
    <style>
      .cls-1 {
        fill: #415879;
      }
    </style>
  </defs>
  <path class="cls-1" d="M-.2524,648.11979q0-322.45009-.06524-644.9002C-.3185.59294.27278-.00425,2.8986,0q81.748.13306,163.4963.06686c-.65415,1.57665-.33031,3.23152-.33066,4.84576q-.02765,127.68165-.01626,255.36331,0,132.06033-.05723,264.1206c-.00243,3.01787.53251,4.1858,3.92647,4.12662q19.42426-.33887,38.85729-.00355c3.3194.05508,3.9252-.99287,3.921-4.065q-.13088-94.92912-.06618-189.8585-.008-167.26459-.02129-334.5292H903.70418c.08932,1.50595.25667,3.01189.25684,4.51785q.0186,142.73505.01171,285.47011c0,1.05075-.01324,2.10226.02257,3.152.02325.68266-.02111,1.61173.8867,1.63944,2.90926.08871,5.90092.43869,8.70624-.107,1.77238-.34478,1.5581-2.89689,2.05188-4.49186q31.6737-102.32808,63.26773-204.68088Q992.10415,42.82711,1005.233.06688h137.93916q0,322.08483.0653,644.1696c.001,3.08171-.62242,4.05564-3.91956,4.0464q-65.9907-.18453-131.98174.01475c-3.64373.0124-4.28521-1.00638-4.2817-4.41213q.146-139.93878.07769-279.87777c0-1.05085.00547-2.10183-.01137-3.15243-.00914-.57018.02112-1.38939-.64857-1.42292a36.63,36.63,0,0,0-6.97284.01035c-1.413.2026-1.28928,2.03171-1.65759,3.19917Q949.46424,503.295,905.202,643.98432c-1.06765,3.39882-2.4924,4.32494-6.01408,4.31293-43.4101-.14821-86.82088-.0966-130.2315-.09669-5.021,0-5.02191-.00038-5.02191-4.9885q-.00026-255.18277.07787-510.36545c.00179-3.49848-.78841-4.4687-4.39573-4.45007-30.92336.15974-61.84793.08105-92.77215.10151-5.5103.00365-4.85754-.68289-4.85788,4.81011q-.017,255.3579.0653,510.71571c.00162,3.30082-.684,4.27034-4.14918,4.26226q-79.11891-.18447-158.23821.01518c-3.70737.01035-4.24987-1.10012-4.24837-4.44326q.1116-255.708.12082-511.416c.00136-3.19937-.80256-4.03981-4.01157-4.02848-34.07456.12037-68.14976.06642-102.22475.0835-5.13708.00258-4.455-.56581-4.45552,4.46315q-.01942,182.14827-.01,364.29654c0,9.22417.13911,18.45167-.079,27.67066-.07167,3.02834.88273,3.62127,3.70789,3.57337,10.26621-.17421,20.5388.02947,30.80536-.13405,2.74379-.0437,3.48591.68755,3.48292,3.46347q-.12679,118.04583-.08466,236.09182H309.23544c-.09066-1.38828-.26-2.77656-.2605-4.16484q-.02168-55.49752-.0178-110.995c-.00169-5.27574.38538-4.55205-4.41323-4.55265q-150.12532-.01776-300.25061-.01223C2.77806,648.19723,1.26283,648.14673-.2524,648.11979Z"/>
</svg>
