<?xml version="1.0" encoding="utf-8"?>
<!-- Generator: Adobe Illustrator 26.0.1, SVG Export Plug-In . SVG Version: 6.00 Build 0)  -->
<svg version="1.1" id="Слой_1" xmlns="http://www.w3.org/2000/svg" xmlns:xlink="http://www.w3.org/1999/xlink" x="0px" y="0px"
	 viewBox="0 0 1143.2 768" style="enable-background:new 0 0 1143.2 768;" xml:space="preserve">
<style type="text/css">
	.st0{fill:#FDFDFD;}
</style>
<g>
	<path class="st0" d="M-0.3,648.1c0-215,0-429.9-0.1-644.9C-0.3,0.6,0.3,0,2.9,0c54.5,0.1,109,0.1,163.5,0.1
		c-0.7,1.6-0.3,3.2-0.3,4.8c0,85.1,0,170.2,0,255.4c0,88,0,176.1-0.1,264.1c0,3,0.5,4.2,3.9,4.1c12.9-0.2,25.9-0.2,38.9,0
		c3.3,0.1,3.9-1,3.9-4.1c-0.1-63.3-0.1-126.6-0.1-189.9c0-111.5,0-223,0-334.5c230.4,0,460.7,0,691.1,0c0.1,1.5,0.3,3,0.3,4.5
		c0,95.2,0,190.3,0,285.5c0,1.1,0,2.1,0,3.2c0,0.7,0,1.6,0.9,1.6c2.9,0.1,5.9,0.4,8.7-0.1c1.8-0.3,1.6-2.9,2.1-4.5
		c21.1-68.2,42.2-136.4,63.3-204.7c8.8-28.5,17.6-57,26.3-85.5c46,0,92,0,137.9,0c0,214.7,0,429.4,0.1,644.2c0,3.1-0.6,4.1-3.9,4
		c-44-0.1-88-0.1-132,0c-3.6,0-4.3-1-4.3-4.4c0.1-93.3,0.1-186.6,0.1-279.9c0-1.1,0-2.1,0-3.2c0-0.6,0-1.4-0.6-1.4
		c-2.3-0.1-4.7-0.3-7,0c-1.4,0.2-1.3,2-1.7,3.2c-29.6,93.8-59.2,187.5-88.6,281.3c-1.1,3.4-2.5,4.3-6,4.3
		c-43.4-0.1-86.8-0.1-130.2-0.1c-5,0-5,0-5-5c0-170.1,0-340.2,0.1-510.4c0-3.5-0.8-4.5-4.4-4.5c-30.9,0.2-61.8,0.1-92.8,0.1
		c-5.5,0-4.9-0.7-4.9,4.8c0,170.2,0,340.5,0.1,510.7c0,3.3-0.7,4.3-4.1,4.3c-52.7-0.1-105.5-0.1-158.2,0c-3.7,0-4.2-1.1-4.2-4.4
		c0.1-170.5,0-340.9,0.1-511.4c0-3.2-0.8-4-4-4c-34.1,0.1-68.1,0.1-102.2,0.1c-5.1,0-4.5-0.6-4.5,4.5c0,121.4,0,242.9,0,364.3
		c0,9.2,0.1,18.5-0.1,27.7c-0.1,3,0.9,3.6,3.7,3.6c10.3-0.2,20.5,0,30.8-0.1c2.7,0,3.5,0.7,3.5,3.5c-0.1,78.7-0.1,157.4-0.1,236.1
		c-37.8,0-75.6,0-113.4,0c-0.1-1.4-0.3-2.8-0.3-4.2c0-37,0-74,0-111c0-5.3,0.4-4.6-4.4-4.6c-100.1,0-200.2,0-300.3,0
		C2.8,648.2,1.3,648.1-0.3,648.1z"/>
</g>
</svg>
