<svg id="Слой_1" data-name="Слой 1" xmlns="http://www.w3.org/2000/svg" viewBox="0 0 64.24738 34.719">
  <defs>
    <style>
      .cls-1 {
        fill: #fff;
      }

      .cls-2 {
        fill: #11addf;
      }
    </style>
  </defs>
  <g>
    <path class="cls-1" d="M1534.97635,641.63849c.26482-.29014.55482-.542.81-.828.38771-.43448.804-.84335,1.19737-1.273q.428-.46747.86228-.92884c.46566-.49633.92492-.9986,1.393-1.49281.28659-.30257.56611-.6121.85165-.916.46976-.50007.932-1.0071,1.40449-1.50479.28312-.29822.55871-.60392.84-.90424.47282-.50477.93642-1.01808,1.41773-1.51509.28614-.29547.56206-.60091.84-.90428q.70082-.76508,1.41482-1.51782c.2791-.29442.54851-.59822.82874-.89211q.72162-.75681,1.42828-1.52781c.27-.29574.54081-.59043.81654-.8809q.72565-.76443,1.43981-1.53973.40572-.4429.81415-.88306c.19723-.21345.40033-.4217.60612-.63449.03708.02359.01132.07166.01133.10907q.00216,13.48885.004,26.9777c0,.12619-.02647.17038-.16118.16552-.30356-.01095-.6081-.01151-.9116.00019-.13821.00533-.17448-.04464-.15756-.16763a.85783.85783,0,0,0,.00081-.11589V626.57357l.042.05239a7.12912,7.12912,0,0,0-.68862.6001c-.17562.19446-.36731.37425-.53409.57878-.20787.25494-.45248.47974-.67833.72027-.47344.50421-.94928,1.00628-1.41563,1.517-.26258.28755-.52394.57586-.79268.85786q-.70425.739-1.39329,1.49249c-.26984.29591-.53957.59151-.816.88144q-.6931.727-1.37025,1.4691c-.27349.30006-.54708.59959-.8275.89335q-.68774.72043-1.35835,1.45712c-.27687.30448-.55538.607-.83925.905q-.68119.71523-1.3466,1.44542-.42068.46306-.85093.9168-.67566.70907-1.33524,1.43338c-.43184.47517-.87229.9421-1.3104,1.41136s-.86425.94957-1.31492,1.407c-.05173.05251-.07337.17949-.14848.15087-.079-.03012-.0303-.14736-.03033-.2245q-.00322-8.87381.00232-17.74761c.00016-.17614-.04848-.21163-.2164-.21156q-14.85526.00624-29.71053.00372c-.2194,0-.21943,0-.21943.21708q0,10.38179,0,20.76356c0,.23063,0,.23066-.22243.23066q-6.093,0-12.186.00405c-.16213.0002-.19609-.041-.196-.1986q.00646-10.97834.00057-21.95666c-.00007-.147.03064-.19823.18665-.1909.29225.01374.586.01268.87837.00025.14459-.00615.187.04331.166.176a.74961.74961,0,0,0-.00091.11585q0,10.35693-.00409,20.71384c-.00012.17317.04393.21359.21474.2133q4.8495-.00814,9.699-.00026c.16172.00025.20856-.03111.20843-.20311q-.00777-10.39835-.00442-20.79669c0-.21521,0-.21524.22128-.21524q16.11533,0,32.23063-.004c.17146-.00007.21453.04113.21436.2136q-.00748,7.89612-.00406,15.79223Z" transform="translate(-1487.75262 -620.56983)"/>
    <path class="cls-1" d="M1531.82618,649.645c.25514-.281.4798-.5258.70139-.77335.15746-.1759.32747-.33949.48533-.51566.385-.4296.795-.83659,1.18575-1.26115.44972-.48865.90032-.97626,1.357-1.45845.28279-.29855.55922-.60349.83954-.90467.44866-.482.89563-.96556,1.34621-1.44587.42782-.45606.8514-.91627,1.27674-1.37475q.67185-.72415,1.34666-1.44545.42156-.45052.83914-.90505.66993-.726,1.34671-1.44541.42712-.45669.85077-.91686c.44259-.48021.89068-.95518,1.33515-1.43353.42945-.46218.85439-.92848,1.2892-1.38581q.66916-.70381,1.323-1.42211c.43915-.48346.88172-.96349,1.33582-1.43293a1.42529,1.42529,0,0,0,.09654-.12643.30629.30629,0,0,1,.02164.187q.00166,7.979.001,15.95792c0,1.01635-.00221,2.03272.0029,3.04906.00062.12238-.02772.16-.154.15611-.31471-.00976-.63-.00651-.9449-.00125-.09615.0016-.14871-.017-.1318-.12547a.75976.75976,0,0,0,.00093-.11585V634.52852c-.06523-.00914-.08615.046-.11612.07777-.48958.51934-.98159,1.03653-1.46341,1.563-.28155.30764-.56638.612-.85022.91741q-.68375.7357-1.37019,1.46882-.4446.47434-.886.95194c-.45583.49046-.9082.984-1.37157,1.46754-.28463.297-.56177.6012-.83968.90454q-.70087.765-1.41474,1.51789c-.28276.29859-.55936.60336-.83975.90447-.47135.50619-.94071,1.01411-1.41636,1.51638-.27515.29055-.54223.58906-.81762.87982-.47181.49813-.942.998-1.40455,1.50466q-.41059.44973-.82736.89345c-.47744.508-.94763,1.02273-1.42767,1.52848-.27165.28622-.53365.58189-.8052.86875-.35777.37795-.704.76682-1.056,1.15021-.0208.02265-.04018.06056-.079.04709-.04175-.01449-.02247-.056-.02462-.08582-.00317-.044-.00085-.08832-.00085-.13251q0-11.38431.00368-22.76861c.00009-.16173-.03118-.2087-.2032-.20836q-4.6091.0093-9.21819-.00015c-.17422-.00036-.20219.04987-.2021.20945q.00613,10.4149.00754,20.8298c.00012.17208-.04132.22286-.21434.21405-.29765-.01517-.59669-.00727-.89505-.00238-.09053.00149-.13629-.01992-.12224-.11805a.7073.7073,0,0,0,.00071-.09932V628.55564c0-.21565,0-.21568.22085-.21568q3.44853,0,6.89707-.00025c.19752,0,.39115.05179.59043.03429a25.5796,25.5796,0,0,1,2.61284-.02545c.55582.00806,1.112.02014,1.66815.023.082.00042.12626.017.1148.10881a1.07727,1.07727,0,0,0-.00089.13246V649.645Z" transform="translate(-1487.75262 -620.56983)"/>
    <path class="cls-2" d="M1519.9251,620.57535q15.92386,0,31.84773.00111c.25445,0,.2211-.07034.22268.40966.00212.64272-.0072,1.286.00416,1.928.00486.27462-.044.35824-.177.31812a.3387.3387,0,0,0-.09936-.00144l-63.61258,0a.61009.61009,0,0,0-.13253.00164c-.09047.01995-.12527-.03538-.12389-.22284q.00813-1.1061,0-2.21253c-.00136-.18671.03277-.24356.12361-.22335a.60507.60507,0,0,0,.13253.00165Z" transform="translate(-1487.75262 -620.56983)"/>
    <path class="cls-1" d="M1517.70019,639.54924q0,5.50122.004,11.00245c.00023.161-.0385.20384-.19825.19679-.31438-.01386-.62985-.0071-.94476-.00222-.09119.00142-.13478-.021-.122-.11858a1.02577,1.02577,0,0,0,.00093-.13243q0-10.39757.00429-20.79511c.00012-.17007-.04386-.20435-.20746-.20407q-4.65853.00791-9.31707.00017c-.15613-.00025-.19977.03139-.19962.195q.00738,8.39268,0,16.78537c-.00014.16353.04319.197.19963.19524.768-.00873,1.53625-.00107,2.30434-.00691.12264-.00093.156.02847.15586.154q-.00584,4.15906.00029,8.31812c.0002.131-.04179.15349-.1593.15058-.31479-.00777-.63015-.00972-.94479.00071-.13316.0044-.16224-.03706-.162-.16472.00381-2.375.00108-4.75.00659-7.12507.00038-.16185-.03108-.21116-.20341-.2086-.75139.01115-1.50308.0006-2.25456.00848-.14314.00151-.16846-.04226-.16839-.17535q.00509-9.54429.00022-19.0886c-.00007-.12766.02953-.16417.16186-.16481.93731-.00452,1.87455-.02688,2.81184-.02815,3.01174-.00409,6.0235-.00027,9.03524-.00512.15434-.00025.201.02854.20075.19386Q1517.69615,634.03972,1517.70019,639.54924Z" transform="translate(-1487.75262 -620.56983)"/>
    <path class="cls-1" d="M1487.75707,638.083q0-6.21349-.00445-12.427c-.00023-.17174.04557-.21093.20851-.20339.29776.01377.59671.00809.895.00162.1012-.0022.14369.025.12889.12879a.94736.94736,0,0,0-.001.13241q0,11.83053-.00426,23.66107c-.00011.176.04825.21178.21628.21165q8.41326-.00682,16.82652-.00737c.16063-.00012.20988.02933.20914.20252q-.01148,2.65933-.00079,5.31873c.00054.15559-.04417.19171-.19134.18627-.30351-.01122-.60793-.00988-.91156-.00031-.12923.00408-.16468-.031-.1642-.16258.00508-1.38076.00314-2.76155.00314-4.14233,0-.23868,0-.2387-.23093-.2387q-8.38839,0-16.77678.004c-.16591.00015-.20651-.0375-.2063-.20522Q1487.76088,644.31311,1487.75707,638.083Z" transform="translate(-1487.75262 -620.56983)"/>
  </g>
</svg>
